<svg width="22" height="22" viewBox="0 0 22 22" fill="none" xmlns="http://www.w3.org/2000/svg">
<path d="M18.077 16.2795H6.7331C5.89266 16.2795 5.39721 15.6379 5.34232 15.0038C5.29946 14.5086 5.52071 13.9624 6.01448 13.6783L4.19781 5.5447C4.16603 5.40218 4.2007 5.25268 4.29219 5.13857C4.38343 5.02445 4.52186 4.95801 4.66799 4.95801H21.3521C21.5079 4.95801 21.6545 5.0336 21.7448 5.16072C21.8351 5.28783 21.8582 5.45105 21.8069 5.59815L19.885 11.1054C19.6464 11.7887 19.0554 12.2901 18.3428 12.4146L6.66136 14.4561C6.65992 14.4564 6.65847 14.4566 6.65679 14.4568C6.29591 14.5211 6.29398 14.8278 6.30217 14.9205C6.31011 15.0135 6.365 15.3163 6.73358 15.3163H18.0775C18.3433 15.3163 18.559 15.532 18.559 15.7978C18.559 16.0636 18.343 16.2795 18.077 16.2795ZM5.26865 5.92123L6.94568 13.4291L18.1769 11.4666C18.546 11.402 18.8522 11.1423 18.9757 10.7884L20.6742 5.92147H5.26865V5.92123Z" fill="white"/>
<path d="M6.87032 20.1751C6.00003 20.1751 5.29224 19.4673 5.29224 18.597C5.29224 17.7267 6.00003 17.0187 6.87032 17.0187C7.74062 17.0187 8.44865 17.7265 8.44865 18.597C8.44841 19.4673 7.74037 20.1751 6.87032 20.1751ZM6.87032 17.9819C6.53111 17.9819 6.25522 18.2578 6.25522 18.5972C6.25522 18.9362 6.53111 19.2123 6.87032 19.2123C7.20953 19.2123 7.48567 18.9364 7.48567 18.5972C7.48543 18.2578 7.20953 17.9819 6.87032 17.9819Z" fill="white"/>
<path d="M16.7407 20.1751C15.8704 20.1751 15.1624 19.4673 15.1624 18.597C15.1624 17.7267 15.8701 17.0187 16.7407 17.0187C17.6112 17.0187 18.319 17.7265 18.319 18.597C18.3188 19.4673 17.611 20.1751 16.7407 20.1751ZM16.7407 17.9819C16.4015 17.9819 16.1253 18.2578 16.1253 18.5972C16.1253 18.9362 16.4012 19.2123 16.7407 19.2123C17.0801 19.2123 17.356 18.9364 17.356 18.5972C17.3558 18.2578 17.0799 17.9819 16.7407 17.9819Z" fill="white"/>
<path d="M4.66724 5.92123C4.44671 5.92123 4.24786 5.76884 4.19778 5.5447L3.85906 4.02777C3.69607 3.29759 3.05954 2.78769 2.31154 2.78769H0.647995C0.382212 2.78769 0.166504 2.57198 0.166504 2.3062C0.166504 2.04041 0.382212 1.82471 0.647995 1.82471H2.3113C3.51383 1.82471 4.53675 2.6442 4.79893 3.81784L5.13765 5.33477C5.19567 5.5943 5.03221 5.85165 4.77268 5.90967C4.73729 5.91762 4.7019 5.92123 4.66724 5.92123Z" fill="white"/>
</svg>
