<svg width="23" height="28" viewBox="0 0 23 28" fill="none" xmlns="http://www.w3.org/2000/svg">
<path d="M2 23.482C2 20.2645 4.30351 17.5239 7.43406 17.0169L7.71604 16.9712C10.2228 16.5652 12.7772 16.5652 15.284 16.9712L15.5659 17.0169C18.6965 17.5239 21 20.2645 21 23.482C21 24.8726 19.8892 26 18.519 26H4.48103C3.1108 26 2 24.8726 2 23.482Z" stroke="#707981" stroke-width="2.30628"/>
<path d="M17.0417 7.25C17.0417 10.1495 14.5606 12.5 11.5 12.5C8.43945 12.5 5.95836 10.1495 5.95836 7.25C5.95836 4.35051 8.43945 2 11.5 2C14.5606 2 17.0417 4.35051 17.0417 7.25Z" stroke="#707981" stroke-width="2.30628"/>
</svg>
