<svg width="27" height="28" viewBox="0 0 27 28" fill="none" xmlns="http://www.w3.org/2000/svg">
<path d="M16.9377 25.6095L16.6651 24.4866L16.6651 24.4866L16.9377 25.6095ZM10.4161 25.6095L10.6887 24.4866L10.6887 24.4866L10.4161 25.6095ZM17.3466 4.68564L16.5156 5.48855L16.5156 5.48855L17.3466 4.68564ZM24.5228 13.7759C24.9663 14.2348 25.6978 14.2474 26.1568 13.8039C26.6157 13.3605 26.6283 12.629 26.1848 12.17L24.5228 13.7759ZM10.0072 4.68564L10.8382 5.48855L10.8382 5.48855L10.0072 4.68564ZM1.169 12.17C0.725562 12.629 0.738136 13.3605 1.19708 13.8039C1.65603 14.2474 2.38756 14.2348 2.831 13.7759L1.169 12.17ZM10.7167 22.4271L9.58001 22.2194L9.58001 22.2194L10.7167 22.4271ZM10.7418 22.2897L11.8785 22.4973L11.8785 22.4973L10.7418 22.2897ZM16.612 22.2897L15.4753 22.4973L15.4753 22.4973L16.612 22.2897ZM16.6371 22.4271L17.7738 22.2194L17.7738 22.2194L16.6371 22.4271ZM16.2611 25.4025L17.3097 25.8881L17.3097 25.8881L16.2611 25.4025ZM15.0611 25.2441C14.7929 25.8232 15.045 26.5101 15.6241 26.7783C16.2032 27.0464 16.89 26.7944 17.1582 26.2153L15.0611 25.2441ZM11.0927 25.4025L10.0442 25.8881L10.0442 25.8881L11.0927 25.4025ZM10.1957 26.2153C10.4639 26.7944 11.1507 27.0464 11.7298 26.7783C12.3089 26.5101 12.561 25.8232 12.2928 25.2441L10.1957 26.2153ZM12.8479 19.9234L12.5311 18.8122L12.5311 18.8122L12.8479 19.9234ZM14.5059 19.9234L14.8228 18.8122L14.8228 18.8122L14.5059 19.9234ZM21.9797 10.9587L21.9797 17.5165L24.2907 17.5165L24.2907 10.9587L21.9797 10.9587ZM5.37413 17.5165L5.37413 10.9587L3.06308 10.9587L3.06308 17.5165L5.37413 17.5165ZM16.6651 24.4866C14.6995 24.9638 12.6543 24.9638 10.6887 24.4866L10.1435 26.7324C12.4674 27.2966 14.8864 27.2966 17.2103 26.7324L16.6651 24.4866ZM10.6887 24.4866C7.60035 23.7368 5.37413 20.8682 5.37413 17.5165L3.06308 17.5165C3.06308 21.884 5.97059 25.7193 10.1435 26.7324L10.6887 24.4866ZM17.2103 26.7324C21.3832 25.7193 24.2907 21.884 24.2907 17.5165L21.9797 17.5165C21.9797 20.8682 19.7535 23.7368 16.6651 24.4866L17.2103 26.7324ZM18.1776 3.88272C17.3356 3.01127 16.6246 2.27176 15.9822 1.76454C15.315 1.23766 14.581 0.844477 13.6769 0.844477L13.6769 3.15552C13.8477 3.15552 14.0836 3.20995 14.55 3.57828C15.0413 3.96627 15.6277 4.56958 16.5156 5.48855L18.1776 3.88272ZM10.8382 5.48855C11.7261 4.56958 12.3125 3.96627 12.8038 3.57828C13.2703 3.20995 13.5061 3.15552 13.6769 3.15552L13.6769 0.844477C12.7729 0.844477 12.0388 1.23766 11.3716 1.76454C10.7293 2.27176 10.0182 3.01127 9.17622 3.88272L10.8382 5.48855ZM11.8534 22.6347L11.8785 22.4973L9.6051 22.0821L9.58001 22.2194L11.8534 22.6347ZM15.4753 22.4973L15.5004 22.6347L17.7738 22.2194L17.7487 22.0821L15.4753 22.4973ZM15.2126 24.917L15.0611 25.2441L17.1582 26.2153L17.3097 25.8881L15.2126 24.917ZM10.0442 25.8881L10.1957 26.2153L12.2928 25.2441L12.1413 24.917L10.0442 25.8881ZM15.5004 22.6347C15.6419 23.4093 15.5402 24.2095 15.2126 24.917L17.3097 25.8881C17.8388 24.7454 18.0006 23.4607 17.7738 22.2194L15.5004 22.6347ZM9.58001 22.2194C9.35328 23.4607 9.51503 24.7454 10.0442 25.8881L12.1413 24.917C11.8137 24.2095 11.712 23.4093 11.8534 22.6347L9.58001 22.2194ZM13.1648 21.0346C13.5002 20.939 13.8536 20.939 14.189 21.0346L14.8228 18.8122C14.0731 18.5984 13.2807 18.5984 12.5311 18.8122L13.1648 21.0346ZM17.7487 22.0821C17.4646 20.5265 16.3431 19.2457 14.8228 18.8122L14.189 21.0346C14.8303 21.2175 15.343 21.7727 15.4753 22.4973L17.7487 22.0821ZM11.8785 22.4973C12.0109 21.7727 12.5235 21.2175 13.1648 21.0346L12.5311 18.8122C11.0107 19.2457 9.88923 20.5265 9.6051 22.0821L11.8785 22.4973ZM9.17622 3.88272L3.3876 9.87382L5.0496 11.4796L10.8382 5.48855L9.17622 3.88272ZM3.3876 9.87381L1.169 12.17L2.831 13.7759L5.0496 11.4796L3.3876 9.87381ZM5.37413 10.9587L5.37413 10.6767L3.06308 10.6767L3.06308 10.9587L5.37413 10.9587ZM16.5156 5.48855L22.3042 11.4796L23.9662 9.87379L18.1776 3.88272L16.5156 5.48855ZM22.3042 11.4796L24.5228 13.7759L26.1848 12.17L23.9662 9.87379L22.3042 11.4796ZM24.2907 10.9587L24.2907 10.6767L21.9797 10.6767L21.9797 10.9587L24.2907 10.9587Z" fill="#3D3E42"/>
</svg>
