<svg width="26" height="28" viewBox="0 0 26 28" fill="none" xmlns="http://www.w3.org/2000/svg">
<path d="M8.97045 8.13861L8.68172 8.87517C8.2156 10.0643 8.09844 11.3772 8.34583 12.6394C8.7233 14.5653 10.1543 16.0528 11.9624 16.3987L12.1216 16.4292C12.695 16.5389 13.2821 16.5389 13.8555 16.4292L14.0147 16.3987C15.8228 16.0528 17.2538 14.5653 17.6313 12.6394C17.8787 11.3772 17.7615 10.0643 17.2954 8.87517L17.0066 8.13861" stroke="#FF4C2F" stroke-opacity="0.9" stroke-width="2.3063" stroke-linecap="round"/>
<path d="M23.9952 18.4835C23.2465 21.9332 20.6871 24.6436 17.4051 25.4756C14.6469 26.1748 11.7531 26.1748 8.99486 25.4756C5.71288 24.6436 3.15351 21.9332 2.40477 18.4836C1.73579 15.4013 1.89849 12.1849 2.87467 9.194L3.0197 8.74966C4.0938 5.45874 6.77706 3.02946 10.0407 2.3932L10.9344 2.21896C12.432 1.92701 13.9681 1.92701 15.4656 2.21896L16.3593 2.39319C19.623 3.02946 22.3062 5.45874 23.3803 8.74968L23.5253 9.19401C24.5015 12.1849 24.6642 15.4013 23.9952 18.4835Z" stroke="#3D3E42" stroke-width="2.3063"/>
</svg>
