<svg width="22" height="22" viewBox="0 0 22 22" fill="none" xmlns="http://www.w3.org/2000/svg">
<path d="M6.3847 10.1526H6.14369V8.19839C6.14369 7.96678 5.95598 7.779 5.72431 7.779H5.6883V3.78085C5.6883 3.62205 5.5986 3.47683 5.45646 3.40576L2.21097 1.78256C2.08101 1.71759 1.92662 1.72446 1.80293 1.8009C1.67924 1.87729 1.60398 2.01228 1.60398 2.15766V7.779H1.56796C1.3363 7.779 1.14858 7.96678 1.14858 8.19839V10.1526H0.907179C0.67551 10.1526 0.487793 10.3404 0.487793 10.572V21.5806C0.487793 21.8122 0.67551 21.9999 0.907179 21.9999H6.38459C6.61626 21.9999 6.80398 21.8122 6.80398 21.5806V10.572C6.80409 10.3404 6.61637 10.1526 6.3847 10.1526ZM2.44286 2.83634L4.84958 4.04004V7.779H2.44286V2.83634V2.83634ZM1.98752 8.61778H5.30498V10.1526H1.98752V8.61778ZM5.96531 21.1612H1.32668V10.9914H5.96531V21.1612V21.1612Z" fill="#4C4848"/>
<path d="M21.0925 17.0146H7.47066C7.23899 17.0146 7.05127 17.2024 7.05127 17.434C7.05127 17.6656 7.23899 17.8534 7.47066 17.8534H20.4253L20.3294 18.0528C19.8026 19.1474 18.6772 19.8548 17.4624 19.8548H7.47066C7.23899 19.8548 7.05127 20.0426 7.05127 20.2742C7.05127 20.5058 7.23899 20.6936 7.47066 20.6936H17.4624C18.9975 20.6936 20.4196 19.7998 21.0852 18.4165L21.4704 17.6159C21.533 17.4859 21.5244 17.3329 21.4476 17.2109C21.3708 17.0888 21.2368 17.0146 21.0925 17.0146Z" fill="#4C4848"/>
<path d="M6.50241 3.08383C8.06616 1.63611 10.1018 0.838773 12.2345 0.838773C16.8876 0.838773 20.6733 4.62443 20.6733 9.27761C20.6733 11.7863 19.5679 14.1484 17.6405 15.7584C17.4627 15.9069 17.439 16.1713 17.5875 16.3491C17.6704 16.4484 17.7895 16.4996 17.9096 16.4996C18.0044 16.4996 18.0998 16.4676 18.1782 16.4021C20.297 14.6323 21.5121 12.0355 21.5121 9.27755C21.5121 4.16193 17.3501 0 12.2345 0C9.88988 0 7.65186 0.876629 5.93255 2.4684C5.76261 2.62575 5.75238 2.89108 5.90973 3.06107C6.06703 3.23095 6.33236 3.24119 6.50241 3.08383Z" fill="#4C4848"/>
<path d="M12.2341 2.58316C15.9256 2.58316 18.9288 5.58641 18.9288 9.27791C18.9288 12.9694 15.9256 15.9727 12.2341 15.9727C10.5745 15.9727 8.98263 15.361 7.75154 14.2505C7.57964 14.0954 7.31442 14.109 7.15919 14.281C7.00408 14.453 7.01772 14.7182 7.18973 14.8733C8.57515 16.1231 10.3666 16.8114 12.2341 16.8114C16.3881 16.8114 19.7676 13.4319 19.7676 9.27791C19.7676 5.12391 16.3881 1.74438 12.2341 1.74438C9.84835 1.74438 7.57875 2.89294 6.16296 4.81681C6.02562 5.00335 6.0656 5.26589 6.25215 5.40317C6.43869 5.54039 6.70111 5.50052 6.8385 5.31398C8.09689 3.60406 10.114 2.58316 12.2341 2.58316Z" fill="#4C4848"/>
<path d="M16.848 5.97391L9.19462 13.6273C9.03083 13.7911 9.03083 14.0567 9.19462 14.2204C9.27654 14.3023 9.3839 14.3432 9.49121 14.3432C9.59851 14.3432 9.70588 14.3023 9.7878 14.2204L17.4411 6.56698C17.6049 6.4032 17.6049 6.13764 17.4411 5.97391C17.2773 5.81013 17.0118 5.81013 16.848 5.97391Z" fill="#4C4848"/>
<path d="M11.5252 13.679C11.3614 13.8428 11.3614 14.1084 11.5252 14.2721C11.6071 14.354 11.7145 14.395 11.8218 14.395C11.9291 14.395 12.0364 14.354 12.1184 14.2721L17.8645 8.52597C18.0283 8.36218 18.0283 8.09663 17.8645 7.9329C17.7007 7.76911 17.4352 7.76911 17.2714 7.9329L11.5252 13.679Z" fill="#4C4848"/>
</svg>
