<svg width="22" height="22" viewBox="0 0 22 22" fill="none" xmlns="http://www.w3.org/2000/svg">
<path d="M22 14.9032V0H2.83871V11.3548H2.48387C1.11455 11.3548 0 12.4694 0 13.8387V17.3871C0 18.7564 1.11455 19.871 2.48387 19.871H8.51613V21.2903H9.93548V22H15.9677V15.6129H9.93548V16.3226H8.51613V17.7419H2.48387C2.288 17.7419 2.12903 17.583 2.12903 17.3871V13.8387C2.12903 13.6428 2.288 13.4839 2.48387 13.4839H2.83871V14.9032H22ZM3.54839 0.709677H4.25806V1.41935H4.96774V0.709677H5.67742V1.41935H6.3871V0.709677H7.09677V1.41935H7.80645V0.709677H8.51613V1.41935H9.22581V0.709677H9.93548V1.41935H10.6452V0.709677H11.3548V1.41935H12.0645V0.709677H12.7742V1.41935H13.4839V0.709677H14.1935V1.41935H14.9032V0.709677H15.6129V1.41935H16.3226V0.709677H17.0323V1.41935H17.7419V0.709677H18.4516V1.41935H19.1613V0.709677H19.871V1.41935H20.5806V0.709677H21.2903V14.1935H20.5806V13.4839H19.871V14.1935H19.1613V13.4839H18.4516V14.1935H17.7419V13.4839H17.0323V14.1935H16.3226V13.4839H15.6129V14.1935H14.9032V13.4839H14.1935V14.1935H13.4839V13.4839H12.7742V14.1935H12.0645V13.4839H11.3548V14.1935H10.6452V13.4839H9.93548V14.1935H9.22581V13.4839H8.51613V14.1935H7.80645V13.4839H7.09677V14.1935H6.3871V13.4839H5.67742V14.1935H4.96774V13.4839H4.25806V14.1935H3.54839V0.709677ZM10.6452 16.3226H15.2581V17.0323H12.0645V17.7419H15.2581V19.871H12.0645V20.5806H15.2581V21.2903H10.6452V16.3226ZM9.22581 17.0323H9.93548V20.5806H9.22581V17.0323ZM2.48387 12.7742C1.89697 12.7742 1.41935 13.2518 1.41935 13.8387V17.3871C1.41935 17.974 1.89697 18.4516 2.48387 18.4516H8.51613V19.1613H2.48387C1.50558 19.1613 0.709677 18.3654 0.709677 17.3871V13.8387C0.709677 12.8604 1.50558 12.0645 2.48387 12.0645H2.83871V12.7742H2.48387Z" fill="#4C4848"/>
<path d="M17.7419 12.0646H4.96773V2.83883H19.871V12.0646H18.4516V12.7743H20.5806V2.12915H4.25806V12.7743H17.7419V12.0646Z" fill="#4C4848"/>
<path d="M18.4517 4.96777H6.38721V5.67745H18.4517V4.96777Z" fill="#4C4848"/>
<path d="M18.4517 7.09668H6.38721V7.80636H18.4517V7.09668Z" fill="#4C4848"/>
<path d="M18.4517 9.22583H14.9033V9.93551H18.4517V9.22583Z" fill="#4C4848"/>
</svg>
