<svg width="22" height="22" viewBox="0 0 22 22" fill="none" xmlns="http://www.w3.org/2000/svg">
<path d="M20.9297 6.80572C20.6838 4.46661 19.0829 2.47413 16.8517 1.73062L14.0807 0.807072L13.6948 0.0349121H8.30558L7.91967 0.806718L5.14867 1.73027C2.91709 2.47413 1.31653 4.46625 1.07069 6.80572L0 16.9722L3.87176 17.4027L4.98703 9.87668V21.9652H17.0133V9.87668L18.1282 17.4027L22 16.9722L20.9297 6.80572ZM13.5045 1.23648L14.3226 3.41855L13.7369 3.27246C13.5526 2.82643 13.1136 2.51092 12.6018 2.51092C12.3379 2.51092 12.0907 2.59581 11.8862 2.7426L13.3952 1.01789L13.5045 1.23648ZM13.1225 3.73901V4.81997C13.1225 5.10683 12.889 5.34064 12.6018 5.34064C12.403 5.34064 12.2247 5.23028 12.136 5.05307L12.0613 4.90344V3.65554L12.136 3.50627C12.2247 3.32871 12.4034 3.21835 12.6018 3.21835C12.889 3.21835 13.1225 3.45215 13.1225 3.73901ZM12.6962 0.742342L11.0002 2.68105L9.30376 0.742342H12.6962ZM11.5194 3.16211C11.5145 3.17166 11.5078 3.18015 11.5028 3.19005L11.489 3.21835H11.4703L11.5194 3.16211ZM11.3539 3.92578V4.63321H10.6465V3.92578H11.3539ZM10.5301 3.21835H10.5113L10.4972 3.1897C10.4922 3.18015 10.4862 3.17166 10.4809 3.16246L10.5301 3.21835ZM8.49552 1.23684L8.60482 1.01824L10.1138 2.7426C9.90932 2.59581 9.66207 2.51092 9.39856 2.51092C8.88673 2.51092 8.44777 2.82643 8.26384 3.27246L7.67738 3.4189L8.49552 1.23684ZM9.93903 3.65554V4.9038L9.8644 5.05271C9.77562 5.23028 9.59699 5.34064 9.39856 5.34064C9.11134 5.34064 8.87789 5.10683 8.87789 4.81997V3.73901C8.87789 3.45215 9.11134 3.21835 9.39856 3.21835C9.59734 3.21835 9.77562 3.32871 9.8644 3.50592L9.93903 3.65554ZM4.68212 7.10921L3.27257 16.6238L0.777465 16.3468L1.77388 6.8793C1.99106 4.81572 3.40344 3.05776 5.37257 2.40162L7.57905 1.66625L6.5416 4.4323L7.10931 4.29046V5.34064C7.10931 6.31583 6.31593 7.10921 5.34074 7.10921H4.68212ZM5.69446 21.2578V19.7602L8.19062 21.2578H5.69446ZM9.43039 21.2578L11.0002 19.9498L12.57 21.2578H9.43039ZM16.3059 21.2578H13.8097L16.3059 19.7602V21.2578ZM16.3059 18.9353L13.1561 20.8256L11.0002 19.0287L8.84429 20.8252L5.69446 18.9353V7.78834C6.89213 7.61573 7.81674 6.58536 7.81674 5.34064V4.1136L8.17046 4.02517V4.81997C8.17046 5.49698 8.72155 6.04807 9.39856 6.04807C9.86687 6.04807 10.2881 5.78808 10.4972 5.36893L10.5113 5.34064H11.489L11.5032 5.36929C11.7126 5.78808 12.1335 6.04807 12.6018 6.04807C13.2788 6.04807 13.8299 5.49698 13.8299 4.81997V4.02517L14.1836 4.1136V5.34064C14.1836 6.58536 15.1082 7.61573 16.3059 7.78834V18.9353ZM17.3182 7.10921H16.6596C15.6844 7.10921 14.891 6.31583 14.891 5.34064V4.29046L15.4588 4.4323L14.4213 1.66625L16.6278 2.40162C18.5966 3.05776 20.0093 4.81572 20.2265 6.87965L21.2229 16.3472L18.7278 16.6241L17.3182 7.10921Z" fill="#4C4848"/>
<path d="M11.3539 7.81665H10.6465V8.52408H11.3539V7.81665Z" fill="#4C4848"/>
<path d="M11.3539 11.3538H10.6465V12.0612H11.3539V11.3538Z" fill="#4C4848"/>
<path d="M11.3539 14.8909H10.6465V15.5983H11.3539V14.8909Z" fill="#4C4848"/>
</svg>
