<svg width="28" height="28" viewBox="0 0 28 28" fill="none" xmlns="http://www.w3.org/2000/svg">
<path d="M23.007 20.7194H8.56929C7.49964 20.7194 6.86906 19.9028 6.7992 19.0958C6.74466 18.4655 7.02625 17.7703 7.65468 17.4087L5.34256 7.05688C5.30212 6.87549 5.34624 6.68522 5.46267 6.53998C5.5788 6.39475 5.75498 6.31018 5.94097 6.31018H27.1753C27.3736 6.31018 27.5602 6.40639 27.6751 6.56817C27.79 6.72995 27.8194 6.93769 27.7541 7.12491L25.3081 14.1342C25.0044 15.0038 24.2522 15.642 23.3453 15.8004L8.47798 18.3987C8.47614 18.399 8.47431 18.3993 8.47216 18.3996C8.01286 18.4814 8.01041 18.8718 8.02083 18.9897C8.03094 19.108 8.1008 19.4935 8.5699 19.4935H23.0076C23.3459 19.4935 23.6204 19.768 23.6204 20.1063C23.6204 20.4445 23.3456 20.7194 23.007 20.7194ZM6.70544 7.5361L8.83985 17.0916L23.1342 14.5938C23.6039 14.5117 23.9936 14.1811 24.1508 13.7306L26.3125 7.53641H6.70544V7.5361Z" fill="white"/>
<path d="M8.74407 25.6774C7.63642 25.6774 6.7356 24.7766 6.7356 23.6689C6.7356 22.5613 7.63642 21.6602 8.74407 21.6602C9.85172 21.6602 10.7528 22.561 10.7528 23.6689C10.7525 24.7766 9.85141 25.6774 8.74407 25.6774ZM8.74407 22.8861C8.31235 22.8861 7.96121 23.2372 7.96121 23.6692C7.96121 24.1006 8.31235 24.4521 8.74407 24.4521C9.17579 24.4521 9.52723 24.101 9.52723 23.6692C9.52693 23.2372 9.17579 22.8861 8.74407 22.8861Z" fill="white"/>
<path d="M21.3061 25.6774C20.1985 25.6774 19.2974 24.7766 19.2974 23.6689C19.2974 22.5613 20.1982 21.6602 21.3061 21.6602C22.4141 21.6602 23.3149 22.561 23.3149 23.6689C23.3146 24.7766 22.4138 25.6774 21.3061 25.6774ZM21.3061 22.8861C20.8744 22.8861 20.523 23.2372 20.523 23.6692C20.523 24.1006 20.8741 24.4521 21.3061 24.4521C21.7382 24.4521 22.0893 24.101 22.0893 23.6692C22.089 23.2372 21.7379 22.8861 21.3061 22.8861Z" fill="white"/>
<path d="M5.94012 7.53614C5.65946 7.53614 5.40637 7.34219 5.34263 7.05693L4.91153 5.12628C4.70409 4.19696 3.89396 3.548 2.94197 3.548H0.82472C0.486451 3.548 0.211914 3.27346 0.211914 2.93519C0.211914 2.59692 0.486451 2.32239 0.82472 2.32239H2.94166C4.47214 2.32239 5.77405 3.36538 6.10772 4.8591L6.53883 6.78974C6.61268 7.12005 6.40463 7.44759 6.07432 7.52144C6.02928 7.53155 5.98424 7.53614 5.94012 7.53614Z" fill="white"/>
</svg>
